P2
100 151
255
59
60
60
60
59
60
59
59
59
59
59
59
59
58
59
58
58
58
58
58
58
57
58
57
58
57
57
57
57
57
56
56
56
55
55
54
55
54
54
54
53
54
53
52
53
52
52
52
51
51
51
51
51
50
49
49
50
49
49
48
48
48
48
48
47
47
47
47
46
46
46
46
46
45
45
45
45
44
43
44
43
43
43
42
42
42
42
41
41
41
41
40
40
39
38
38
37
38
38
38
60
61
60
60
60
59
59
60
60
59
59
59
59
59
59
59
58
59
58
58
58
58
58
57
57
58
58
57
57
57
57
56
56
56
56
54
55
55
55
54
54
54
53
53
53
53
52
52
52
51
51
51
51
51
50
50
50
50
49
49
49
49
49
48
48
48
47
47
47
47
47
46
46
46
46
45
45
45
45
44
44
43
44
43
43
43
43
42
42
42
42
41
41
41
40
40
39
39
39
38
61
60
60
60
60
59
60
60
60
60
60
60
59
59
59
59
59
59
59
59
58
58
58
58
58
58
58
57
57
56
57
57
56
56
56
55
55
55
55
54
54
54
54
53
53
52
52
53
52
52
52
51
51
51
50
51
50
50
49
49
49
49
49
49
49
48
48
48
48
47
47
47
46
46
46
46
46
45
45
45
45
44
44
44
44
43
43
42
42
42
42
41
41
41
40
40
41
39
39
38
61
61
60
61
60
60
61
61
60
60
60
60
60
60
59
60
60
59
59
59
59
58
58
58
58
58
58
58
58
57
57
57
57
57
56
56
56
56
55
55
55
55
54
54
54
53
53
53
52
52
52
51
51
51
51
51
51
50
50
50
50
50
49
49
48
49
48
48
48
48
47
47
46
46
46
46
46
45
46
46
45
45
44
44
44
44
43
43
43
42
42
42
42
42
41
41
40
40
40
39
61
61
61
61
61
61
61
61
61
60
61
60
60
60
60
60
60
59
60
59
59
59
59
58
59
58
58
58
58
58
57
57
57
57
57
56
56
56
56
55
55
55
55
54
54
54
53
53
53
53
52
52
51
51
51
51
51
51
51
50
50
50
50
49
49
49
48
48
48
48
48
47
47
47
46
47
46
46
46
46
45
45
45
44
44
44
44
43
43
43
43
42
42
42
41
41
41
40
40
40
62
62
61
62
61
61
61
61
61
61
61
61
61
61
61
60
60
60
60
59
60
59
59
59
59
59
58
59
58
58
58
58
58
58
57
57
57
56
56
56
56
56
55
54
54
54
54
54
53
53
52
52
52
52
52
52
51
51
51
51
51
50
50
50
49
49
49
49
49
48
48
48
48
48
47
47
47
47
46
46
46
45
45
45
45
44
44
44
43
43
43
43
42
42
41
41
41
41
41
40
62
63
62
62
62
62
62
62
62
62
62
62
61
61
61
61
60
60
60
60
60
60
60
60
59
59
59
59
59
58
58
58
58
58
58
57
57
57
56
56
56
55
55
55
55
55
54
54
53
53
53
53
53
53
52
53
52
51
51
51
51
51
50
50
50
50
50
49
49
48
48
48
48
48
48
47
47
47
46
46
46
46
46
45
45
45
44
44
44
44
43
43
43
43
42
42
42
42
42
41
63
63
63
63
63
63
62
62
62
62
62
62
62
62
61
61
61
61
61
61
61
61
60
60
60
60
60
60
59
59
59
59
59
58
58
58
57
57
57
56
56
56
56
56
55
55
55
55
54
54
53
53
53
53
53
52
52
52
52
52
51
51
51
51
51
50
50
49
49
49
49
49
48
49
48
48
48
47
47
47
47
46
46
46
45
45
45
44
44
44
44
44
43
43
42
42
42
42
42
41
64
64
64
63
64
63
63
63
63
63
63
63
62
62
61
61
62
61
61
61
61
61
61
61
60
60
60
60
59
59
59
59
59
59
58
58
58
58
57
57
57
57
56
56
56
56
56
55
55
54
54
54
54
54
54
53
53
53
52
52
52
51
51
51
51
50
50
50
50
50
49
49
49
49
48
48
48
48
48
47
47
47
46
46
46
45
45
45
44
44
44
44
44
43
43
43
43
43
42
42
65
64
64
64
64
63
64
63
63
63
63
63
63
62
63
62
62
62
62
62
61
61
61
61
61
61
60
60
60
60
60
60
60
59
59
59
58
58
58
57
57
57
58
56
57
56
56
56
55
55
55
55
54
54
54
54
53
53
53
53
52
52
52
52
51
51
50
51
50
50
50
50
49
49
49
49
49
48
48
48
47
47
47
46
46
46
46
46
45
45
45
44
44
43
43
43
43
43
43
43
66
65
65
64
65
64
65
64
64
63
64
64
64
63
63
63
62
62
62
62
61
62
62
62
61
61
61
61
60
60
60
59
60
59
59
59
59
58
59
58
57
58
57
57
57
57
56
56
56
56
55
55
55
54
55
54
54
54
53
54
53
53
52
52
52
52
52
51
51
50
51
51
50
50
49
49
49
49
49
48
48
48
47
47
47
46
46
46
46
46
45
45
44
45
44
44
43
43
43
42
66
66
65
66
65
65
65
65
65
64
65
64
64
64
64
63
63
63
63
63
62
63
63
62
62
61
61
61
61
61
61
60
60
60
60
60
60
60
59
59
58
58
58
58
57
57
57
57
56
56
56
56
56
55
55
55
55
54
54
54
53
53
53
53
52
52
52
51
51
51
51
51
50
50
50
49
49
49
49
49
48
48
48
48
47
47
46
46
46
46
46
45
45
44
44
44
44
44
43
42
66
66
66
66
65
66
66
66
66
65
65
65
65
65
65
64
64
64
63
63
63
62
63
63
62
62
62
62
62
61
62
61
61
61
60
60
60
60
59
59
58
59
58
58
58
58
58
57
57
57
56
56
56
56
55
55
55
55
55
54
54
54
54
53
52
53
53
52
52
51
52
51
51
50
50
50
50
49
49
49
49
48
49
48
48
47
47
47
46
46
46
46
45
45
45
45
45
44
44
43
67
68
67
66
67
66
66
66
66
66
66
66
65
65
65
65
64
64
64
63
63
63
63
63
63
63
63
63
63
62
62
61
61
61
61
61
61
60
60
60
59
60
60
59
58
59
58
58
57
57
57
57
57
56
56
56
56
55
56
55
55
55
54
54
54
53
53
52
52
52
52
52
52
51
51
51
50
50
50
49
50
49
48
49
48
48
47
47
47
47
46
46
46
46
45
45
45
45
45
44
68
68
67
67
68
67
67
67
66
66
66
66
66
66
66
65
65
65
65
64
65
64
64
64
64
63
63
63
63
63
63
62
62
62
62
62
61
61
60
60
61
61
60
59
59
59
59
59
58
58
58
57
57
57
57
56
57
56
56
55
55
55
55
54
54
54
54
53
53
52
52
52
52
51
51
52
51
50
50
50
50
49
49
48
48
48
48
48
48
47
47
46
46
46
45
45
45
45
45
45
69
69
69
68
68
68
67
67
67
68
67
67
67
67
66
66
66
65
66
65
64
64
65
64
64
64
64
63
64
63
63
63
62
63
63
62
62
62
61
61
61
61
60
60
60
59
59
59
59
58
58
58
58
57
57
57
56
56
57
56
56
56
55
55
54
54
54
53
53
53
53
52
52
52
52
51
51
51
51
51
50
50
49
49
49
49
49
48
48
48
47
47
47
46
46
46
46
46
46
45
70
70
70
69
69
68
69
68
68
67
67
67
67
66
67
67
67
66
66
66
65
65
65
66
64
65
65
64
64
64
64
64
63
63
63
62
62
62
62
62
62
61
61
61
61
60
60
60
59
59
59
58
59
58
58
58
57
57
57
56
56
56
56
55
55
55
54
54
54
54
53
53
53
53
52
52
52
51
51
50
50
50
50
50
49
49
49
49
49
48
48
48
47
47
47
46
46
46
46
45
70
70
69
70
70
69
68
69
68
69
68
67
68
68
68
67
67
67
66
67
66
66
66
66
65
66
65
66
65
65
65
64
64
64
64
63
63
63
62
62
62
62
62
62
61
61
61
60
60
59
60
59
59
59
59
58
58
58
58
58
57
57
57
56
56
56
55
55
54
54
54
54
53
53
53
52
52
52
51
51
51
50
50
50
49
49
49
49
49
48
49
48
48
48
47
47
47
47
47
46
71
71
71
70
70
70
70
69
69
69
69
69
69
68
68
68
68
68
67
67
67
66
66
67
66
66
66
66
66
65
65
65
65
64
65
64
64
63
63
63
63
63
62
62
62
61
61
60
61
60
60
60
60
59
59
59
59
58
58
57
57
57
57
57
57
56
56
55
55
54
55
54
53
53
53
53
53
52
52
52
51
51
51
51
50
50
50
50
49
49
49
48
48
48
48
48
47
47
47
47
72
72
72
71
71
71
70
70
70
70
70
69
69
69
70
69
68
68
69
68
68
68
67
68
67
67
67
66
67
66
66
66
66
65
66
65
65
64
64
64
64
64
63
63
62
62
62
62
61
61
61
60
60
60
60
59
59
59
59
58
58
58
57
57
57
57
57
56
55
55
54
55
54
54
54
53
53
53
53
52
52
52
52
51
51
51
50
50
50
49
50
49
49
48
48
48
48
48
48
47
73
72
72
72
72
71
71
70
71
71
71
70
70
70
70
70
69
69
69
68
69
69
68
68
67
68
68
67
67
66
67
67
66
66
67
66
65
65
65
64
64
65
63
64
63
62
62
62
62
62
61
61
61
61
61
60
59
59
60
59
59
58
58
58
57
57
57
56
56
56
55
55
55
55
54
54
54
53
53
53
53
53
52
51
51
51
51
51
50
50
50
49
49
49
49
49
49
48
48
48
74
73
73
73
72
72
71
72
72
72
71
71
71
70
70
70
70
70
70
70
69
69
69
69
68
68
68
68
68
68
68
67
67
67
67
67
67
66
66
65
65
64
64
64
64
63
63
62
62
62
62
61
61
61
60
61
60
60
60
59
60
59
58
58
58
57
57
57
57
56
56
56
55
55
55
54
54
54
53
53
53
53
52
52
52
51
51
51
51
51
51
50
50
50
49
49
48
49
49
48
74
74
74
74
73
73
72
72
73
72
72
72
72
71
71
71
71
71
71
70
70
70
70
70
70
69
69
69
69
69
68
68
68
68
67
67
67
67
66
66
65
65
65
65
64
64
64
63
62
62
62
62
62
61
61
61
61
61
60
60
60
60
59
59
59
58
58
57
57
57
57
56
56
56
56
55
55
55
55
54
53
53
53
52
53
52
52
51
52
51
51
51
50
50
50
49
49
49
49
48
75
75
75
74
73
73
73
73
73
73
73
73
73
72
72
72
72
71
71
71
71
71
70
70
71
70
70
70
70
69
69
69
68
69
69
68
67
67
66
66
66
66
65
65
65
65
64
64
63
64
63
63
62
62
62
62
61
61
60
60
60
60
60
59
59
59
59
58
58
57
57
57
57
56
56
56
55
55
55
55
55
54
54
53
53
53
53
52
52
51
51
51
51
50
50
50
50
50
49
49
76
75
75
75
75
74
74
74
74
74
74
74
73
73
72
73
72
72
72
72
72
71
71
71
72
71
70
71
70
70
70
70
70
69
69
69
68
68
67
67
67
66
66
66
65
65
65
65
64
63
63
63
63
62
62
62
62
62
61
60
61
61
60
59
60
59
59
58
58
58
58
57
57
57
56
57
56
56
56
55
55
54
54
54
53
53
53
53
53
52
52
52
51
51
51
51
51
51
50
49
77
76
76
76
76
75
75
75
75
75
75
74
74
74
74
74
73
73
73
73
73
73
72
72
72
72
72
71
71
71
70
70
70
70
69
70
69
68
68
68
68
67
67
67
66
66
66
65
65
64
64
64
63
63
63
63
63
62
62
62
61
62
61
60
60
60
60
59
59
58
58
58
58
57
57
56
56
56
56
56
55
55
55
54
54
54
53
54
53
53
52
52
52
52
51
51
51
51
51
50
78
77
77
77
76
76
76
76
76
76
76
75
75
78
75
74
74
74
73
73
74
73
73
72
73
72
72
72
72
72
71
71
71
71
71
70
70
69
69
68
68
68
67
68
66
66
67
66
66
66
65
65
64
64
64
64
63
63
63
62
62
61
61
61
61
60
60
60
59
59
59
59
58
58
58
57
57
56
56
56
56
56
56
55
54
54
54
54
54
53
53
53
52
52
52
51
52
51
51
50
79
78
78
78
77
77
77
77
77
76
77
76
76
77
75
75
74
75
75
74
74
74
74
73
73
73
73
73
72
72
72
72
72
71
71
70
71
70
70
69
69
69
69
68
68
67
67
67
66
66
65
65
65
65
65
64
64
63
63
63
62
62
62
62
61
61
60
60
60
60
59
59
59
58
58
58
58
57
57
57
56
56
56
56
55
55
55
55
54
54
54
53
53
53
52
52
52
52
52
51
80
79
79
79
79
78
78
78
77
78
77
77
77
76
77
76
76
76
76
75
75
75
74
75
74
74
74
74
73
73
73
73
72
72
72
72
72
71
71
70
70
69
69
69
69
68
68
67
67
67
66
66
66
66
65
65
65
64
64
64
63
64
63
63
62
62
61
61
61
60
60
60
60
59
59
58
58
58
58
57
57
57
56
56
55
55
55
55
55
54
54
54
53
53
53
52
52
52
52
51
81
80
79
80
79
79
79
79
78
78
78
78
78
77
77
77
77
76
76
76
76
76
75
76
75
75
75
74
74
74
73
73
72
73
72
73
72
72
71
71
70
70
69
69
69
69
68
68
68
67
67
66
66
66
66
65
65
65
65
65
64
64
64
63
62
63
62
62
61
61
61
61
60
60
59
59
59
59
58
58
58
58
57
56
56
56
56
55
55
55
55
55
53
53
54
53
53
53
53
52
82
81
80
81
80
80
80
80
79
79
79
79
79
79
79
78
77
77
77
77
76
76
76
77
76
76
75
75
75
75
74
74
74
74
73
72
73
72
71
71
72
70
70
70
69
70
69
69
68
68
68
68
67
67
67
66
66
66
65
65
64
65
64
63
63
63
62
63
62
62
61
61
61
61
60
60
59
59
59
59
58
58
58
57
57
57
56
56
56
55
55
54
54
54
53
54
53
54
53
52
83
81
82
82
81
81
81
80
81
80
80
80
80
79
79
79
78
78
78
78
77
77
78
77
77
77
76
76
76
75
75
75
74
74
74
74
74
73
73
72
72
71
71
71
71
71
70
70
69
69
68
68
68
67
67
67
67
66
66
66
65
65
65
64
64
63
63
63
63
62
62
62
61
61
61
61
60
60
59
59
59
58
58
58
58
57
57
56
56
56
56
55
55
54
54
55
54
54
53
53
83
82
83
83
82
81
82
81
81
81
81
81
81
80
79
80
79
79
79
78
78
78
78
78
78
77
77
77
76
76
76
76
75
76
79
75
74
73
73
73
73
72
72
71
72
71
71
71
70
69
69
68
68
68
68
68
67
67
67
67
65
66
65
65
65
64
64
63
63
63
62
62
62
61
62
61
61
60
60
60
60
60
59
58
58
58
57
57
57
57
56
56
56
55
55
55
55
54
54
54
84
84
84
84
83
83
82
83
83
82
82
81
81
81
81
81
81
80
80
79
79
79
78
79
78
78
78
78
77
77
77
77
76
77
81
76
76
75
74
74
73
73
72
73
72
72
71
71
70
70
70
70
69
69
68
69
68
68
68
67
67
66
66
66
65
65
64
64
64
63
63
63
62
62
62
61
61
61
61
60
60
59
59
59
58
59
58
58
57
57
57
56
56
56
56
55
55
55
55
54
84
85
84
84
84
84
84
83
83
83
83
83
82
82
82
81
81
81
81
80
80
79
80
79
61
79
79
78
78
79
78
77
77
69
41
76
76
75
75
75
74
74
74
73
73
73
72
72
71
71
71
69
69
70
70
69
68
68
68
68
68
67
67
66
66
66
66
65
65
64
64
64
63
62
62
62
62
62
61
61
61
60
60
60
59
59
59
58
58
57
57
57
57
56
56
56
56
55
55
55
86
86
85
85
85
85
84
84
84
84
83
83
83
83
82
82
81
81
81
81
81
81
80
73
39
77
79
79
74
43
76
73
61
68
55
55
76
76
76
75
75
75
74
74
74
74
73
72
72
72
72
71
70
70
70
70
70
69
69
69
68
68
68
67
67
67
66
66
65
65
64
64
63
63
63
63
63
62
62
61
61
60
61
60
60
60
59
59
58
58
58
57
57
57
56
56
56
56
56
55
87
87
86
86
86
86
86
85
85
84
84
84
84
83
83
83
83
82
82
81
81
79
70
75
63
62
84
91
85
69
71
57
82
84
48
47
77
77
76
77
76
75
75
75
74
74
74
73
73
73
72
72
71
71
71
71
70
70
70
69
69
69
68
68
67
66
67
67
65
65
65
65
65
64
64
63
63
63
62
62
61
61
61
61
60
60
60
59
59
59
59
58
58
58
57
56
56
56
56
55
89
88
87
88
87
86
87
86
87
86
85
86
85
85
84
84
84
83
83
82
69
83
82
67
57
67
54
53
50
43
55
70
72
77
54
82
80
78
78
77
77
76
76
76
76
74
75
74
73
73
73
72
72
72
71
72
71
70
70
70
70
69
69
68
68
68
67
66
66
66
66
66
65
65
65
64
64
63
63
63
62
62
61
61
61
61
60
60
60
60
59
58
58
58
58
57
57
57
57
56
89
89
89
89
88
88
87
87
87
87
87
87
86
86
85
85
84
83
71
67
78
83
79
68
54
58
61
46
42
54
53
59
66
70
57
61
98
79
79
78
78
77
77
76
76
76
76
75
74
74
74
73
73
73
73
72
72
71
71
70
70
70
70
69
69
68
68
68
67
67
67
66
66
65
65
65
64
64
64
63
63
63
62
62
62
62
61
61
60
60
60
59
59
59
58
58
58
57
58
57
91
90
90
90
89
88
88
88
88
88
88
87
86
86
87
85
75
60
70
85
79
84
80
70
56
35
70
101
116
137
148
164
156
111
58
46
102
81
79
79
79
77
78
77
77
77
76
76
76
75
75
74
74
74
74
74
73
72
72
72
71
71
70
70
70
69
69
68
68
68
67
67
67
66
65
65
65
65
64
64
63
63
63
62
62
62
61
61
61
61
60
59
59
59
59
59
58
58
58
57
91
92
91
90
90
90
90
89
89
90
89
89
88
86
77
55
71
86
82
86
80
85
81
61
36
101
131
114
97
92
82
84
79
88
61
45
98
85
81
80
79
79
78
78
78
77
77
76
76
76
76
75
75
75
74
74
74
73
73
72
71
72
71
71
70
70
69
69
68
68
68
68
68
67
66
66
65
65
66
65
64
64
63
63
63
62
62
62
61
61
61
60
60
59
59
59
59
59
58
57
93
92
92
92
91
90
91
90
91
90
89
89
76
54
72
82
88
87
83
87
80
70
49
58
54
95
79
96
81
85
80
84
79
88
63
44
79
97
81
81
81
80
79
79
79
78
78
78
77
77
76
76
76
76
75
75
74
74
73
73
73
72
72
71
70
70
70
70
70
69
69
68
68
68
67
66
66
66
66
65
65
64
65
64
63
63
63
62
62
62
62
61
61
60
60
60
59
59
59
58
93
93
93
93
92
92
91
91
91
90
66
63
75
82
90
83
89
88
83
67
54
72
76
73
56
77
78
94
82
85
80
85
80
89
65
44
79
92
82
82
81
81
81
79
80
79
79
78
78
77
78
77
77
76
76
75
75
75
74
74
73
73
72
72
71
71
71
70
70
70
68
68
69
69
68
67
67
67
66
66
65
65
65
64
64
64
63
63
63
63
62
61
61
61
61
60
61
61
60
59
95
93
94
94
93
93
92
87
68
65
71
92
91
84
91
84
87
66
56
66
84
89
77
73
54
58
78
91
84
86
82
85
81
80
44
44
80
84
76
83
82
82
82
81
81
81
79
79
79
79
78
78
78
77
77
76
76
75
75
74
74
74
74
73
72
72
72
71
71
71
69
70
69
68
69
68
68
67
66
67
66
66
65
65
65
64
64
64
63
63
62
62
62
61
61
61
61
60
60
59
96
95
95
95
93
85
65
58
87
94
86
92
92
83
85
61
57
73
86
84
85
90
79
68
43
55
80
89
74
87
83
87
82
65
21
43
80
83
77
84
83
83
82
82
81
81
80
80
79
79
78
78
78
78
78
77
77
77
76
75
75
75
73
73
73
73
72
72
71
72
71
71
69
69
69
68
68
68
67
68
67
66
66
66
65
65
65
65
64
64
63
63
62
62
62
61
61
61
61
60
97
96
94
75
56
73
93
88
95
94
87
92
80
55
56
81
91
86
87
85
86
91
79
63
33
54
80
90
79
82
83
87
83
64
20
43
82
84
78
81
84
84
83
82
83
82
82
81
81
80
80
79
79
78
78
78
78
78
77
76
75
75
75
75
74
74
73
72
72
72
71
71
70
69
70
69
69
69
68
68
67
67
66
67
66
66
66
64
65
64
64
63
63
63
62
62
62
62
62
61
87
59
66
86
89
97
96
89
95
92
61
52
73
86
86
87
92
87
88
85
87
92
80
62
29
52
82
90
82
79
85
89
77
87
67
52
83
85
84
75
86
85
84
84
84
83
83
82
81
81
81
80
80
80
79
79
79
78
77
77
76
76
76
75
75
75
74
73
72
72
72
72
71
71
71
70
70
70
69
69
69
68
67
67
67
67
66
66
66
65
64
64
64
63
63
63
63
63
63
61
75
86
100
100
94
99
95
70
59
64
79
89
96
88
88
88
94
88
89
86
89
94
81
74
57
51
86
103
97
96
96
102
100
121
73
49
85
86
84
68
86
85
85
85
84
84
83
83
83
82
82
81
81
81
80
80
80
79
78
78
78
77
77
77
75
75
74
74
74
73
73
72
72
72
71
71
70
70
70
69
69
69
68
68
67
66
67
67
66
66
65
65
65
64
64
64
63
63
63
61
100
91
98
99
110
73
62
66
94
98
89
90
97
89
89
90
94
89
90
88
89
95
83
78
65
88
75
74
74
76
81
97
107
117
77
45
86
88
85
81
74
87
86
85
85
85
85
85
83
83
83
83
82
81
81
81
81
80
79
79
78
78
78
77
77
75
75
74
74
74
74
73
73
73
72
72
71
71
70
70
70
69
68
68
68
68
67
67
67
66
66
65
65
64
64
64
64
63
63
62
99
82
65
62
60
97
100
88
98
99
90
91
98
90
90
91
95
90
91
89
91
96
84
80
64
80
78
86
83
86
93
105
115
112
80
40
86
89
86
84
74
88
87
87
87
86
86
86
85
84
84
84
83
83
82
82
82
81
81
80
79
78
78
77
77
77
76
76
76
75
74
74
74
74
73
72
72
72
71
71
70
70
69
69
68
69
68
68
68
67
67
66
66
65
65
64
65
64
64
63
48
67
97
102
83
102
102
89
99
100
91
93
100
91
92
92
97
92
92
90
91
97
85
82
64
63
63
73
74
86
94
105
106
117
83
34
88
91
87
86
80
81
89
88
87
87
87
87
86
85
85
85
84
83
83
82
82
82
82
81
80
80
79
79
78
78
78
77
76
76
76
76
75
75
74
73
73
73
72
72
71
71
70
70
69
69
69
68
69
68
67
67
67
66
65
65
65
65
65
63
94
97
104
103
85
103
102
90
100
101
93
94
101
92
93
93
97
93
94
92
93
98
86
83
68
94
147
170
159
155
143
128
130
122
86
30
88
92
88
86
90
69
90
88
88
88
88
88
87
87
87
86
85
85
84
84
84
84
82
82
81
81
81
80
80
79
79
78
78
78
76
76
75
75
75
74
74
73
73
72
72
71
72
72
71
70
70
69
69
68
68
68
67
67
66
65
66
65
65
64
96
97
105
104
86
104
103
91
101
103
93
95
103
93
94
95
99
94
95
92
94
99
87
84
67
85
118
99
88
96
89
89
75
117
92
37
89
92
89
88
92
71
89
89
89
90
89
88
88
87
87
86
86
86
85
85
84
84
84
83
82
82
82
81
80
80
79
79
78
78
77
77
76
76
75
75
74
74
74
74
74
73
72
71
71
71
71
70
69
69
69
68
68
68
67
67
67
66
66
65
97
98
107
106
87
105
106
92
103
104
95
97
104
95
95
96
100
95
96
94
95
101
88
84
71
80
91
99
90
96
90
93
78
116
95
37
88
94
89
89
92
86
75
91
90
90
90
90
89
88
87
88
87
87
86
86
86
84
84
84
84
83
82
82
82
81
81
80
79
79
78
78
77
77
76
76
76
75
75
75
74
73
73
72
71
71
71
71
71
70
70
69
69
68
68
68
67
67
67
65
98
98
107
108
88
107
107
93
105
106
96
98
105
96
96
97
101
97
97
94
96
101
89
85
72
81
91
100
91
97
90
93
93
101
91
41
88
95
91
89
94
88
70
92
92
91
91
91
90
89
89
88
88
88
87
87
86
86
85
85
84
84
83
83
82
82
82
81
80
80
80
79
78
78
77
77
76
76
75
75
74
74
74
73
73
72
72
71
71
70
70
70
69
69
68
68
68
68
68
66
100
100
109
109
89
108
108
94
106
107
97
99
106
97
97
97
102
98
99
97
97
103
90
83
69
65
92
101
92
97
92
93
94
97
76
36
89
97
92
90
95
90
82
83
93
92
92
91
91
91
91
90
89
89
88
88
87
87
87
86
85
85
84
84
83
83
82
82
81
81
80
80
79
79
79
78
77
77
76
76
75
75
74
74
73
73
72
73
72
71
71
70
70
70
69
69
69
68
68
66
101
102
110
111
91
109
109
95
108
108
98
100
107
98
98
99
103
99
100
97
99
105
91
75
59
54
93
102
93
99
94
94
95
99
62
55
88
98
93
92
97
91
90
76
94
93
93
93
93
92
92
91
91
90
90
89
89
88
88
86
86
86
85
85
84
83
84
82
82
81
81
81
80
80
80
79
78
78
77
77
76
76
76
75
75
74
74
73
73
72
72
72
71
70
70
70
69
69
69
66
102
104
113
112
92
111
110
96
110
110
98
102
109
100
100
100
105
100
101
99
100
106
93
71
59
64
91
103
94
99
94
97
97
74
32
45
91
100
94
93
98
92
92
82
89
95
94
94
93
93
93
93
92
91
91
90
90
89
88
88
88
87
86
86
85
85
84
84
83
82
82
81
81
81
80
79
79
79
78
77
77
77
76
76
75
75
74
74
73
72
72
72
72
71
71
71
70
70
70
68
103
104
113
112
93
112
112
97
111
111
100
104
109
101
101
102
107
101
102
100
102
107
94
65
42
55
91
104
97
101
97
97
94
97
84
63
80
100
95
94
99
93
93
94
76
96
96
96
95
94
94
93
93
92
92
91
91
90
89
89
88
88
88
86
86
85
85
85
84
84
84
82
82
81
80
80
80
80
79
78
78
77
77
76
76
76
75
75
75
74
73
73
73
72
72
71
71
70
70
68
104
105
114
114
94
113
113
98
113
113
101
105
111
103
102
103
108
103
104
101
102
108
96
80
72
60
78
101
103
108
110
108
105
129
99
69
73
102
96
95
101
94
94
96
78
97
97
96
96
96
95
95
95
94
94
93
92
91
91
90
89
89
89
88
88
86
86
85
85
84
84
84
83
82
82
82
80
80
79
79
79
78
78
78
77
77
76
76
75
75
74
74
73
73
72
72
72
71
71
69
106
107
116
116
96
115
115
99
114
114
103
107
113
104
104
104
108
104
105
102
104
110
98
85
76
104
95
92
91
87
96
95
106
129
104
70
74
103
97
96
102
95
95
99
93
82
98
98
97
96
96
95
95
95
95
93
93
92
92
91
91
90
89
88
88
87
87
86
86
85
84
84
84
83
82
82
81
81
81
80
80
79
79
78
78
77
77
77
76
75
75
74
74
73
73
73
73
72
72
70
108
108
118
117
97
117
116
100
116
116
103
107
114
105
105
106
111
106
107
103
105
111
100
89
81
95
94
95
96
98
105
110
120
133
109
70
58
104
99
98
103
97
96
100
98
76
99
99
98
97
97
97
97
96
96
95
94
93
93
92
92
91
90
90
89
88
88
87
86
87
86
85
85
84
84
83
83
82
82
81
81
80
80
78
79
78
77
77
77
77
76
74
74
74
74
74
73
73
73
70
109
110
119
119
99
118
118
102
117
118
105
110
115
106
106
106
111
107
108
104
107
113
101
92
83
97
98
100
101
104
110
114
118
125
110
72
65
94
99
99
104
99
98
102
98
88
90
100
100
99
98
98
98
97
97
95
95
94
94
93
92
92
92
91
90
89
89
89
87
87
87
86
86
85
84
84
83
83
82
82
82
80
80
80
80
79
78
78
77
77
76
75
75
75
74
74
74
73
73
71
111
111
120
120
100
120
119
102
118
118
106
111
117
109
108
109
113
109
109
106
109
114
102
96
85
92
92
97
100
106
118
126
131
136
114
74
73
90
101
101
105
100
99
103
99
98
81
102
101
100
100
99
98
98
97
96
96
96
94
94
94
93
92
91
90
90
89
89
89
88
88
87
87
87
85
85
85
84
83
83
83
81
81
81
80
80
80
79
78
77
78
77
76
76
75
75
75
74
73
72
112
113
123
122
102
122
120
105
120
120
107
112
119
108
110
110
115
110
112
108
110
116
105
99
88
110
129
151
132
126
122
116
125
135
117
75
74
102
90
103
106
102
101
105
100
99
85
97
102
101
101
100
100
99
99
98
97
97
96
95
94
94
94
93
92
91
90
90
90
89
89
88
88
87
86
86
85
85
85
84
83
83
82
82
81
81
80
80
79
79
78
77
77
76
76
76
75
75
74
72
113
115
124
124
104
123
122
105
122
121
108
115
120
110
111
111
116
112
112
109
112
118
105
105
93
109
110
113
108
109
108
108
110
139
122
78
75
111
83
104
107
103
102
107
101
101
100
84
103
102
102
101
101
100
99
98
99
97
97
96
96
95
95
94
93
93
92
91
91
91
90
89
88
87
87
86
87
86
85
84
84
83
83
82
81
81
81
81
80
80
79
79
77
77
77
77
76
76
75
73
115
117
126
125
105
125
124
107
124
123
109
117
121
112
113
112
117
113
114
111
114
120
108
113
97
120
95
115
110
110
109
109
110
144
126
78
77
112
95
93
109
104
103
108
102
101
101
87
101
102
103
102
102
102
101
100
99
99
98
97
96
96
95
95
95
93
93
92
92
91
91
90
89
89
88
88
87
86
86
85
85
85
84
83
83
82
82
82
81
81
80
79
78
78
77
77
77
76
76
74
116
118
128
126
107
126
126
109
125
125
111
118
123
115
115
116
119
115
116
113
115
122
110
118
100
107
98
116
111
112
110
111
113
137
130
80
79
113
103
83
110
105
104
109
103
103
102
101
86
104
104
103
103
102
101
101
100
100
100
99
98
97
97
96
95
95
94
93
93
93
92
91
90
90
89
89
89
87
87
86
86
85
85
84
84
83
83
83
82
81
81
80
79
79
79
78
78
77
77
75
118
120
129
128
109
128
128
110
127
127
113
120
125
115
117
116
121
117
117
114
117
123
111
127
103
110
94
117
113
114
113
111
115
138
134
83
82
115
104
100
97
106
105
110
104
104
103
104
88
106
107
105
105
103
103
102
102
101
100
100
99
98
97
97
96
96
95
94
94
93
93
92
92
90
90
89
90
88
88
87
87
86
85
85
84
84
84
83
83
82
81
81
80
80
79
79
79
78
78
76
119
122
132
129
111
131
130
111
129
129
114
122
127
118
118
118
123
118
119
116
118
125
113
135
107
113
95
119
115
114
114
113
116
142
140
85
85
118
105
106
90
107
108
111
106
105
104
106
102
88
107
106
106
105
104
103
103
102
102
101
100
99
99
98
98
97
96
95
95
94
94
93
92
92
91
90
90
89
89
88
87
87
86
87
86
85
84
84
84
83
82
82
81
81
81
80
79
79
79
77
121
124
134
131
113
131
132
114
131
131
116
124
127
119
120
120
125
119
121
117
120
127
116
144
110
113
97
120
116
116
116
114
118
141
140
81
88
119
106
109
101
94
109
112
107
106
105
108
107
84
109
107
107
106
106
105
104
104
103
102
101
101
100
99
98
98
96
96
95
95
94
93
93
93
92
92
91
90
90
89
88
88
88
87
86
85
86
85
84
84
83
83
82
82
81
81
80
80
79
78
123
127
136
132
115
134
134
115
133
132
117
126
130
122
121
121
126
122
123
118
121
129
118
146
109
109
98
121
118
117
117
116
119
136
138
90
91
121
108
110
108
92
111
114
108
108
107
109
108
100
94
109
108
107
107
106
106
105
104
104
102
102
102
100
100
98
98
98
97
97
95
95
94
94
93
92
92
92
91
89
89
89
89
88
88
87
86
86
86
85
84
83
83
83
82
82
81
81
80
78
125
129
138
135
118
137
136
118
136
135
120
127
131
123
124
123
127
123
124
121
124
131
121
144
118
109
101
123
120
118
118
117
121
139
140
105
104
122
109
112
110
106
93
115
109
109
108
111
109
108
85
110
109
108
108
107
106
106
105
105
104
103
102
101
101
100
99
99
98
98
97
96
95
95
94
93
93
93
92
91
90
90
89
89
88
88
87
87
87
86
85
84
84
83
83
82
82
82
81
79
127
131
140
136
119
138
137
119
138
136
120
130
133
125
125
125
129
125
125
122
126
132
122
154
115
126
94
123
121
120
120
119
123
128
105
79
100
123
112
114
111
113
91
115
111
111
110
113
111
109
99
117
111
110
110
109
107
107
107
106
105
103
103
103
102
101
100
100
99
99
98
97
97
96
95
94
94
93
93
92
91
90
90
90
89
89
88
87
87
87
86
86
85
84
84
83
83
82
82
80
130
134
142
139
122
141
140
120
140
139
122
132
135
126
128
126
132
126
127
123
127
134
127
139
98
99
95
113
112
107
108
108
122
160
160
105
102
124
112
116
113
113
111
97
112
111
111
114
111
110
110
93
113
111
110
110
110
109
108
106
106
106
105
104
103
102
102
102
101
100
99
99
98
98
97
96
95
95
93
93
93
92
91
91
91
89
89
89
88
87
87
86
85
85
85
84
84
84
83
81
131
136
144
141
124
143
142
123
142
141
124
133
137
128
129
128
132
128
129
125
129
135
130
169
128
137
131
114
102
90
97
101
124
163
163
105
105
126
114
118
114
114
113
92
112
113
113
116
112
111
110
98
105
112
112
111
110
110
109
108
107
107
107
105
105
104
103
103
102
102
101
99
99
98
98
97
96
96
95
94
93
93
93
92
91
90
90
89
89
88
88
87
87
87
85
86
85
84
84
82
134
138
146
142
126
144
144
124
144
143
126
136
139
131
131
130
135
130
131
127
131
137
133
165
128
133
127
110
103
94
102
108
129
164
165
103
100
126
115
120
115
116
115
113
97
114
115
117
113
112
112
111
91
114
113
113
113
112
111
110
109
108
108
107
106
105
104
103
103
102
101
101
100
99
99
98
98
97
96
96
94
94
93
93
93
91
91
90
90
89
89
88
87
87
87
86
86
85
84
83
135
141
149
144
129
148
147
127
146
145
128
139
141
132
133
132
136
132
132
129
133
139
136
162
130
132
126
111
105
98
107
112
131
164
165
99
97
128
116
122
117
117
117
114
96
111
117
117
115
113
113
113
98
109
115
115
114
113
113
111
111
110
109
108
108
107
105
104
104
103
103
102
101
101
100
100
99
97
97
96
96
95
95
94
93
92
92
92
91
91
90
90
88
88
88
87
87
86
85
83
139
143
150
145
130
149
149
129
149
148
130
142
142
134
135
133
139
134
134
131
134
142
139
155
128
127
124
109
106
99
107
108
127
161
162
94
92
130
119
124
118
118
119
115
114
96
120
119
116
115
114
114
114
94
117
116
115
114
113
112
112
112
110
110
109
107
107
106
106
104
103
103
103
101
101
100
100
98
98
97
97
96
95
95
94
93
93
93
93
92
91
91
89
89
89
88
88
88
86
84
151
145
152
147
133
150
152
137
155
152
134
143
144
136
137
136
141
136
137
133
138
144
142
151
126
121
125
136
148
145
151
140
136
160
158
88
89
131
121
125
122
120
122
116
115
107
114
120
117
116
116
115
114
101
111
117
116
116
115
115
113
113
111
110
110
109
109
107
107
106
105
104
103
103
102
102
100
100
99
99
98
97
97
96
95
95
94
94
93
92
92
91
91
90
90
90
89
89
88
85
152
148
154
149
135
155
158
184
183
155
136
146
147
139
139
138
143
139
139
135
141
144
143
146
125
117
121
130
136
132
135
133
133
158
151
80
84
132
122
127
124
122
124
117
117
120
103
121
118
118
117
118
116
116
96
119
117
117
116
115
115
114
113
112
111
110
109
109
108
107
106
106
104
104
103
103
102
101
100
100
99
99
97
97
97
96
95
95
94
94
93
93
92
91
91
90
90
90
88
86
91
103
138
151
139
158
162
161
161
158
139
148
149
141
142
141
145
142
142
138
145
146
146
140
122
118
120
136
139
134
136
137
136
156
143
73
81
134
124
129
126
123
126
120
117
122
115
109
120
119
119
119
117
117
103
113
119
118
118
117
116
115
114
113
112
111
111
110
109
109
108
107
105
106
105
104
103
102
102
101
100
100
98
99
98
97
96
96
95
94
95
93
93
91
91
92
91
90
89
87
16
31
39
59
87
138
164
146
149
159
146
154
152
144
144
143
151
147
146
142
152
149
147
137
123
122
122
139
141
135
139
143
138
157
138
67
80
135
125
131
129
124
128
121
119
124
123
102
119
121
120
120
119
118
118
98
121
120
119
118
118
116
115
115
114
113
111
112
110
110
109
108
107
107
106
105
105
104
103
102
101
101
100
100
99
98
98
97
97
96
95
94
94
93
91
91
92
91
89
87
10
9
10
12
26
38
63
85
117
157
150
156
153
145
146
148
172
185
150
145
161
151
148
136
122
126
133
141
144
138
141
153
141
162
139
65
77
137
128
133
131
124
129
122
121
125
127
119
105
123
122
122
121
120
119
106
114
121
121
120
119
118
117
116
115
115
114
113
112
111
110
109
109
108
107
106
106
105
104
103
103
102
102
101
100
99
98
98
97
97
96
96
94
93
92
91
91
91
90
89
9
10
9
10
10
10
12
23
37
60
107
126
146
149
148
151
171
173
150
148
173
154
148
141
126
129
123
144
146
140
143
167
143
162
147
66
78
138
131
135
134
127
132
123
123
127
129
122
105
117
124
124
122
121
121
121
99
123
122
122
120
119
118
118
117
116
115
114
114
112
112
111
111
109
109
108
108
106
106
105
104
103
102
102
102
101
99
99
99
98
97
96
95
94
94
93
93
92
90
89
9
9
9
9
9
9
9
10
11
14
18
38
44
71
105
143
160
151
150
157
184
156
149
150
136
136
146
146
149
141
146
180
146
163
155
70
79
140
133
137
136
129
133
126
125
130
131
123
121
104
125
124
123
123
122
121
112
113
123
123
122
121
121
119
119
118
117
116
115
114
113
112
112
111
110
109
108
108
107
107
105
104
103
102
102
101
100
100
99
97
97
97
95
95
94
94
93
93
91
89
9
9
9
9
9
9
10
9
9
10
10
11
11
14
30
42
69
102
131
161
185
158
149
154
182
147
141
149
153
144
149
181
149
164
162
74
78
142
137
139
139
130
135
126
126
132
133
124
122
115
111
126
125
124
124
123
122
101
126
125
124
123
122
122
120
119
118
118
117
116
115
115
113
113
112
111
110
108
108
106
106
105
104
103
102
102
101
100
100
99
98
98
96
96
95
95
94
93
92
90
10
10
10
10
9
9
9
10
10
9
10
9
9
10
10
12
14
29
49
88
119
123
153
163
146
136
138
153
159
148
154
169
152
167
165
77
80
144
142
143
141
132
138
128
128
135
134
126
125
125
108
125
127
126
127
125
124
118
111
126
126
125
124
123
122
121
120
119
117
117
116
115
115
113
112
111
111
109
108
108
106
105
105
104
103
103
102
102
101
99
100
98
97
96
96
95
95
93
93
91
11
10
10
10
10
10
10
10
9
10
9
10
10
10
10
10
10
11
12
15
20
28
52
87
105
123
138
161
162
154
171
197
158
173
159
78
80
148
146
147
143
134
139
131
130
136
136
127
126
127
123
107
129
128
128
126
126
125
106
127
127
126
125
124
123
123
121
120
119
119
117
116
115
114
113
112
111
110
109
108
107
106
106
105
104
104
102
102
101
100
100
99
98
97
97
97
96
95
93
92
45
31
34
25
13
12
10
10
10
10
10
10
10
9
9
10
10
10
10
11
11
11
13
15
28
42
93
125
149
152
162
175
193
164
133
83
90
154
152
151
146
137
141
133
132
139
138
129
129
129
125
118
118
130
129
128
128
127
121
110
128
128
126
126
125
123
122
121
120
119
118
117
115
115
114
113
113
112
111
110
109
108
107
106
104
105
104
103
102
101
101
99
98
98
97
96
97
96
94
93
43
14
14
17
25
26
31
25
16
18
9
9
10
10
10
10
9
10
10
10
10
11
11
11
11
14
17
33
50
58
124
149
170
158
117
107
143
212
191
160
149
141
144
136
135
142
140
131
131
131
127
127
112
130
131
130
129
128
125
109
125
129
128
127
125
125
123
122
121
119
119
118
116
115
115
114
114
112
112
110
109
109
112
109
106
105
105
103
103
102
101
101
100
99
98
98
97
96
95
92
131
97
59
38
19
28
19
23
24
24
24
25
17
12
10
10
10
11
12
11
10
11
10
10
11
11
11
12
17
17
34
54
90
123
120
83
91
194
159
183
156
148
147
138
138
145
142
133
133
133
129
128
130
113
132
131
130
130
126
125
110
130
128
127
126
126
125
123
122
121
120
119
118
116
116
115
114
113
112
99
110
110
103
109
107
106
105
104
104
102
102
101
101
99
98
98
98
97
96
94
182
182
183
178
152
119
99
50
20
21
20
24
32
36
37
18
10
12
9
10
11
12
12
12
11
10
11
12
12
14
17
23
32
39
63
48
48
58
131
206
159
186
151
141
141
148
145
135
134
134
132
130
132
123
122
132
131
130
128
125
120
119
130
130
128
127
125
124
123
122
121
120
119
118
117
116
115
115
113
60
59
57
55
101
108
108
106
105
105
104
103
102
101
100
99
99
97
98
96
95
183
183
181
180
180
180
181
181
169
138
105
76
48
17
14
14
10
20
36
33
21
26
11
12
36
28
26
35
19
23
48
78
59
42
49
42
41
47
89
107
137
150
146
150
144
176
158
138
137
136
135
133
133
131
117
130
133
132
130
127
130
115
146
131
129
127
126
126
124
123
122
121
121
120
118
118
116
115
106
75
104
107
79
96
109
108
107
106
106
105
104
103
102
101
100
100
99
98
97
95
184
183
182
182
180
180
180
180
179
179
179
179
178
155
121
77
13
21
13
14
15
18
27
28
14
15
22
20
13
20
34
55
48
82
59
50
51
56
58
46
48
48
92
135
145
165
148
143
139
153
139
136
135
134
132
113
133
134
132
128
129
129
113
132
131
129
128
127
125
124
124
122
121
120
120
118
117
116
103
81
112
111
87
89
109
109
107
106
106
105
104
104
102
101
101
100
99
98
97
95
184
184
183
183
182
181
181
181
180
180
179
179
178
178
177
152
57
43
80
84
61
34
36
28
20
23
29
41
34
49
47
96
112
114
85
67
67
102
110
64
39
36
32
40
50
89
122
149
144
174
141
139
142
137
134
130
117
136
134
129
131
130
117
122
131
130
129
127
126
125
125
124
122
121
120
119
119
117
102
72
105
102
88
80
110
109
109
107
106
106
104
103
103
102
101
100
100
98
97
95
186
185
185
184
183
182
182
182
181
181
180
179
179
178
177
177
168
141
144
145
147
144
137
90
45
55
49
93
97
114
87
120
88
62
100
66
76
195
187
72
43
34
28
24
22
23
35
56
85
119
144
143
178
141
136
137
127
125
136
132
132
131
127
113
129
131
130
128
127
126
125
124
123
122
121
119
119
109
108
72
65
58
62
76
111
110
108
108
107
105
104
104
101
101
100
100
99
98
97
95
185
185
185
184
184
183
183
182
182
181
180
180
179
179
178
178
178
177
177
176
176
178
177
121
58
78
105
142
138
109
113
106
46
62
114
78
79
93
98
60
42
34
28
23
21
19
19
18
21
30
56
86
121
139
144
178
136
126
136
135
132
134
129
131
111
132
131
130
128
127
126
125
123
122
121
121
120
105
110
73
103
103
95
76
109
109
109
107
106
106
104
103
102
101
100
100
99
98
97
95
186
186
185
185
184
184
182
182
181
181
181
181
179
179
179
178
178
178
177
176
175
176
175
139
74
89
105
166
165
128
127
53
59
82
121
78
72
60
56
53
40
32
26
23
23
21
21
18
18
18
18
21
29
54
88
119
141
147
161
135
138
136
130
133
124
117
132
131
130
128
127
126
125
124
122
121
123
109
110
77
109
112
98
78
103
109
108
107
106
105
104
103
103
101
101
100
99
98
97
94
188
187
187
186
186
184
184
183
184
183
182
181
180
179
179
178
177
177
177
176
175
175
175
157
90
94
114
173
162
126
127
105
135
141
116
62
71
88
63
46
39
33
28
25
22
19
20
22
22
20
18
18
18
19
21
29
59
91
119
131
161
138
147
136
130
121
122
132
130
130
128
127
126
123
122
121
106
113
110
75
82
102
92
69
101
109
108
107
106
105
104
102
102
101
100
99
99
98
96
94
189
188
187
187
186
185
184
184
184
182
181
181
180
180
179
177
178
178
176
176
175
175
158
120
92
104
77
88
121
64
73
116
124
148
111
73
71
161
165
155
125
92
58
29
23
19
19
17
15
14
18
19
21
20
18
19
20
22
31
57
80
133
159
137
156
131
117
124
130
128
127
126
125
123
122
115
108
112
111
85
86
78
80
78
101
110
108
107
106
105
104
103
101
101
100
99
98
97
96
94
189
187
188
187
186
185
184
183
182
182
181
181
179
179
178
177
177
177
177
165
125
71
47
95
113
105
69
106
76
43
45
76
111
79
118
78
69
159
162
162
162
160
160
154
126
92
58
28
19
16
15
14
14
16
19
21
22
18
19
18
20
30
56
101
123
126
158
109
117
120
120
120
119
119
117
103
111
110
109
94
101
94
97
84
98
109
108
107
106
104
103
102
101
100
99
98
97
96
95
93
188
187
186
185
184
183
183
183
182
181
181
180
179
179
178
179
174
143
99
52
44
44
45
100
108
100
124
91
43
44
44
46
90
126
119
75
72
109
113
99
74
82
89
103
144
153
152
148
125
93
59
27
16
14
14
13
15
17
17
19
17
16
17
22
30
66
88
132
115
139
113
114
115
116
101
107
107
110
103
112
101
94
102
94
98
107
107
106
104
103
103
102
100
99
98
97
97
95
94
92
188
185
185
185
184
183
182
182
181
181
180
180
179
171
129
83
52
45
43
42
42
42
43
97
101
93
125
95
86
87
91
98
106
127
116
72
67
44
44
44
44
43
41
40
45
97
146
148
147
146
145
142
119
85
49
19
13
12
13
12
15
16
17
17
17
18
24
41
75
98
131
121
121
111
106
106
105
98
109
122
102
93
100
107
100
101
106
104
103
101
101
99
99
98
97
96
95
94
92
91
187
185
185
184
184
183
182
181
181
180
178
154
97
48
43
41
41
41
40
41
41
40
42
94
96
92
121
78
62
60
61
61
79
121
111
68
63
40
40
41
42
41
40
39
38
38
49
101
141
143
137
138
134
121
113
101
72
46
26
14
12
12
12
13
15
17
17
17
20
28
59
96
146
143
120
103
95
99
103
116
99
97
96
112
101
98
105
103
102
101
101
98
97
96
95
95
94
93
91
89
185
183
182
182
181
182
166
130
106
80
57
42
41
40
39
37
39
39
39
39
39
41
42
90
92
91
105
99
54
39
41
46
89
86
107
65
60
38
38
39
40
40
39
38
38
35
36
39
52
99
88
85
69
64
70
70
71
59
50
40
27
19
14
11
11
11
13
16
18
20
24
42
131
86
108
134
112
105
109
127
101
79
97
137
101
96
104
103
102
100
99
98
96
95
94
93
92
91
90
88
183
181
181
172
115
63
43
41
41
40
40
39
38
38
37
37
38
38
38
38
40
40
41
88
90
91
60
76
87
49
41
68
60
49
103
62
57
36
37
37
38
38
38
37
37
36
36
37
39
41
44
49
54
60
63
60
42
34
30
28
28
28
29
25
19
14
12
13
13
16
21
32
89
31
42
79
131
133
114
112
97
95
100
128
100
93
103
101
100
99
97
96
95
94
92
91
91
90
88
87
176
140
91
45
38
37
38
42
51
41
38
38
36
36
36
36
37
37
38
39
39
38
40
83
82
86
79
75
79
70
62
59
34
45
98
60
54
33
35
34
36
36
35
34
35
37
35
36
37
38
39
41
47
52
49
33
28
26
27
26
26
25
25
25
24
24
31
21
17
14
15
18
29
22
23
25
34
68
110
133
106
101
94
114
98
87
100
101
100
97
96
94
92
92
91
89
89
88
86
84
46
39
36
37
35
36
37
47
81
38
35
35
34
34
34
36
38
44
48
41
39
38
39
79
77
78
59
37
39
70
75
33
34
41
93
57
54
30
32
32
33
33
34
35
35
44
37
34
33
38
39
39
40
36
28
26
25
25
25
25
25
23
24
24
23
24
25
26
26
25
21
17
14
14
16
19
22
22
30
75
121
97
63
121
61
49
50
51
47
42
50
59
62
71
85
87
86
85
83
81
33
33
33
33
34
34
34
34
33
33
34
33
32
33
32
32
33
35
34
34
35
36
37
77
72
71
53
34
40
70
74
54
34
40
89
54
52
28
31
31
32
32
32
32
31
31
30
30
30
31
32
32
30
26
25
24
24
23
24
24
23
23
23
21
21
24
24
25
25
25
25
25
21
18
15
14
15
18
21
25
33
73
119
143
63
49
43
40
38
35
32
30
28
25
29
56
80
81
80
78
32
31
33
33
32
31
31
32
31
31
31
31
31
31
31
32
32
33
31
33
35
34
34
68
67
65
48
35
62
37
37
67
55
39
83
52
49
26
30
30
30
30
31
30
29
30
29
29
30
28
28
28
26
23
24
23
22
22
23
22
22
21
20
21
21
22
21
21
22
23
24
24
25
25
25
23
20
15
16
19
26
30
47
117
121
59
49
43
39
35
31
29
26
24
25
24
28
52
73
74
30
30
30
31
31
30
30
29
29
29
29
29
30
30
30
30
31
35
32
31
30
29
29
63
64
60
49
60
43
28
29
40
77
61
78
50
46
26
29
29
29
29
29
28
29
28
28
27
27
27
27
26
22
22
22
21
21
21
21
21
20
19
20
20
20
20
20
21
21
21
22
23
24
24
24
23
26
27
24
23
43
41
29
46
47
118
84
48
43
37
32
28
24
21
21
21
21
19
22
45
28
29
29
29
28
28
27
28
27
28
27
26
27
27
28
30
51
46
30
29
28
29
31
59
61
57
79
59
26
28
28
29
50
78
73
47
44
24
28
28
27
27
27
27
27
27
26
26
26
26
25
24
21
21
21
21
20
20
20
20
19
18
19
18
20
20
19
19
21
21
21
22
24
23
23
23
25
26
30
45
114
84
44
68
50
38
97
92
105
40
63
28
24
23
20
19
19
18
15
15
25
27
28
28
25
26
26
25
25
25
25
25
24
26
25
25
26
29
29
27
28
29
29
55
56
52
71
54
51
49
50
52
59
69
68
44
43
24
27
26
26
25
26
25
26
25
25
26
27
24
22
21
20
20
19
20
19
19
19
19
18
18
18
17
18
18
20
20
19
20
21
21
21
21
22
21
23
30
34
43
87
52
45
65
52
35
32
44
44
36
28
23
21
19
19
18
18
15
14
13
24
25
25
25
23
23
23
23
23
23
23
23
23
24
27
28
28
26
27
29
29
27
29
68
70
67
63
37
36
34
34
35
37
62
81
73
67
45
24
24
25
24
24
24
25
25
25
26
24
22
21
20
19
18
18
18
19
17
18
17
16
17
17
17
17
17
18
17
18
19
19
20
20
20
20
23
25
36
37
36
97
60
51
79
57
34
30
29
29
31
29
26
23
21
20
17
16
16
14
13
22
22
22
22
21
20
21
21
22
21
21
21
22
25
25
24
24
25
25
25
24
25
31
58
52
45
43
25
25
25
25
25
25
45
57
52
40
25
23
23
22
22
23
24
26
25
24
24
22
20
19
20
17
17
17
17
17
16
16
16
16
16
16
16
17
17
16
17
18
17
18
18
18
19
22
24
34
39
38
34
86
50
46
65
57
35
33
27
26
33
31
26
25
22
20
17
14
14
13
13
20
20
19
19
19
19
19
19
20
19
19
21
23
24
24
24
22
24
23
24
25
24
29
54
50
44
44
26
25
25
24
26
35
56
55
50
30
24
22
22
21
22
24
24
23
22
23
23
21
19
19
19
17
17
16
16
16
16
16
16
16
15
16
16
15
15
16
16
16
16
17
18
18
18
23
27
35
36
33
28
72
44
48
59
54
40
35
27
22
28
31
31
30
26
21
19
17
15
13
13
19
19
19
19
18
18
18
19
19
19
19
19
20
23
23
24
23
23
23
23
24
24
39
64
60
53
54
39
38
44
66
47
63
90
75
76
57
52
36
21
22
23
23
22
22
22
24
23
20
19
18
18
16
16
15
16
15
15
15
16
16
15
15
14
15
15
15
16
16
15
16
17
17
19
21
22
29
31
31
26
65
57
44
64
55
47
37
26
26
29
31
38
44
34
28
21
18
15
13
12
17
17
18
17
18
19
18
18
19
20
20
20
20
21
21
21
21
21
21
21
22
24
65
69
68
63
63
66
73
72
68
64
67
63
72
73
46
42
14
22
22
23
21
22
22
24
24
21
19
19
18
17
16
14
15
14
15
14
15
16
15
14
15
14
14
15
15
16
15
15
16
16
17
17
15
18
28
25
29
27
67
49
55
60
62
54
35
26
33
30
42
71
156
49
29
22
18
15
12
11
17
17
17
19
19
19
18
18
19
20
20
19
20
20
21
20
21
20
21
21
20
26
59
63
67
61
66
69
73
73
71
65
65
62
72
74
45
42
15
22
23
22
23
24
25
23
25
25
21
19
19
17
15
14
14
14
14
14
14
15
14
14
15
14
14
15
15
14
14
15
15
16
18
14
14
16
24
25
31
42
71
69
71
74
68
42
35
34
36
34
47
73
81
39
27
23
19
17
19
14
18
18
19
19
18
17
18
18
18
19
19
20
20
21
20
20
21
20
21
25
22
26
60
65
69
66
68
85
75
72
70
63
66
63
71
76
46
41
21
23
24
24
24
24
24
25
31
64
29
20
19
15
14
14
14
14
14
14
14
14
14
15
16
15
16
16
16
16
17
17
17
16
17
15
15
17
22
28
37
42
41
59
60
53
49
49
43
37
33
34
31
32
31
27
23
21
19
18
17
15
25
24
25
26
24
24
25
26
26
26
26
27
27
31
37
37
40
41
37
38
39
45
58
62
64
66
73
98
78
75
72
71
68
60
63
66
57
52
45
40
37
35
37
30
30
30
32
43
36
34
32
30
30
31
31
32
35
36
39
44
48
51
53
54
55
55
54
55
54
55
55
53
50
46
42
38
36
33
30
28
26
24
23
22
22
21
20
20
19
19
19
20
19
19
18
17
16
16
15
14
40
41
41
41
41
42
42
42
42
43
43
44
44
24
22
20
20
21
21
20
20
20
22
24
26
29
31
38
37
37
41
48
55
60
67
71
72
70
70
74
77
81
85
88
90
90
88
92
92
90
87
86
85
86
86
86
87
85
82
77
71
65
60
54
49
45
42
38
36
33
31
30
29
29
28
28
27
26
26
25
24
24
24
24
23
24
24
24
24
24
24
25
24
24
24
24
24
25
24
24
41
40
40
41
40
40
40
41
42
43
44
46
47
50
54
56
61
68
74
80
87
92
99
107
117
121
125
133
140
141
136
140
145
151
153
152
151
153
156
161
164
164
163
159
153
141
127
112
98
86
77
70
64
61
59
58
57
56
56
55
54
53
51
49
49
47
48
47
46
45
44
44
45
45
44
43
42
41
41
40
40
40
39
38
38
37
36
36
35
34
34
33
32
32
31
31
30
30
29
28
62
64
65
67
71
73
76
78
80
81
82
83
87
86
86
85
95
102
106
108
111
113
118
123
124
121
111
114
125
131
128
127
127
135
139
146
161
182
198
206
204
193
174
149
125
106
97
91
83
79
76
74
73
73
71
70
71
71
72
71
68
64
62
61
59
58
57
56
53
51
51
50
54
55
52
48
46
45
44
44
43
43
42
42
41
40
38
39
37
36
35
35
35
34
33
33
33
33
30
28
90
91
92
95
97
101
106
107
107
103
99
95
95
93
92
106
116
115
115
114
111
108
103
100
95
91
85
79
88
105
102
94
96
102
106
118
139
165
187
197
197
186
166
142
120
105
93
87
81
78
76
74
72
72
72
70
71
70
71
71
69
67
64
62
61
60
58
58
56
54
54
54
55
56
54
51
49
47
46
46
45
45
44
42
41
40
40
39
38
37
36
35
35
33
33
32
31
31
29
27
97
99
102
103
104
110
114
114
111
108
105
100
95
90
91
98
100
100
99
98
97
94
89
86
83
82
77
76
74
77
81
84
89
96
104
119
139
157
174
179
176
167
151
134
116
102
91
84
78
74
69
67
65
63
63
63
61
61
61
60
59
58
56
54
54
51
51
50
49
48
48
48
49
48
48
47
45
43
43
42
41
41
40
39
38
38
36
35
35
34
33
33
33
31
31
31
30
30
28
28
113
112
112
113
115
119
124
125
125
123
120
114
109
105
102
100
97
93
90
89
88
85
82
80
77
76
74
74
74
77
82
87
92
99
111
123
137
151
157
159
156
146
134
121
108
97
89
83
76
70
67
65
62
62
61
60
59
59
60
60
57
56
56
55
54
53
51
51
51
50
50
50
51
50
49
48
46
44
43
43
42
41
41
39
38
38
37
37
36
35
34
32
32
31
30
29
29
29
28
27
113
112
112
111
110
110
111
111
110
109
107
104
101
97
94
92
90
88
86
85
83
82
81
79
79
78
77
76
77
80
86
91
98
107
118
129
141
148
151
152
147
140
128
114
103
92
83
78
72
68
65
62
61
60
61
59
60
59
58
57
55
54
53
52
52
52
51
49
49
49
48
48
48
48
47
45
43
42
41
40
39
38
37
36
35
34
32
32
33
32
31
30
29
28
28
28
27
26
25
24
99
96
95
93
91
91
93
91
89
88
86
84
82
82
81
80
79
79
77
77
77
76
75
74
73
72
71
71
72
75
78
83
87
97
106
115
126
135
138
139
134
127
118
107
95
84
75
70
66
63
59
59
57
56
56
56
56
56
56
54
53
52
50
50
48
47
47
46
46
45
46
45
45
44
43
42
40
39
38
36
35
34
33
32
31
31
30
29
29
28
27
25
26
25
26
25
25
24
23
22
85
83
83
82
80
81
81
80
80
79
78
77
76
74
74
74
73
73
73
73
72
72
70
69
69
69
68
69
70
71
74
78
84
92
100
110
121
128
133
133
130
123
113
102
91
83
77
70
65
60
58
56
54
54
53
54
53
52
52
51
50
49
49
48
47
47
46
44
44
45
45
45
46
45
44
43
42
40
40
39
38
37
36
35
34
33
33
32
30
30
29
28
29
28
29
28
26
25
25
24
84
83
81
80
79
79
78
78
78
78
77
76
75
75
74
73
74
73
72
72
71
70
69
69
69
68
68
68
69
71
74
78
82
89
96
106
115
119
125
125
126
121
112
105
95
87
80
72
68
65
61
58
57
56
54
54
52
53
52
52
51
51
51
49
48
47
47
45
45
45
44
44
43
43
43
42
41
39
38
36
35
35
34
34
33
31
31
30
29
29
28
28
27
27
27
25
26
26
24
23
86
85
84
83
83
82
82
82
81
80
80
79
78
77
76
76
75
75
74
74
73
73
71
70
69
69
70
70
71
73
76
81
86
93
101
108
114
121
124
124
122
118
112
105
95
88
83
77
71
65
61
58
57
55
54
53
52
52
50
50
50
49
48
47
47
47
46
46
45
45
44
45
44
45
44
43
42
40
39
38
38
38
36
36
35
35
32
32
31
30
29
30
29
28
28
27
26
25
24
23
86
84
82
81
80
79
79
81
79
78
77
76
76
74
73
72
72
71
70
70
69
68
67
68
67
67
69
69
71
73
76
82
88
93
99
105
112
118
121
121
118
113
109
101
93
88
82
76
70
66
62
58
56
55
54
53
52
51
50
51
50
50
50
50
49
48
47
46
45
44
45
44
44
44
44
42
42
41
40
39
37
37
36
34
33
34
33
33
31
30
29
29
28
27
27
25
25
24
23
21
78
76
76
75
75
74
74
74
74
73
72
72
71
70
69
68
69
69
67
67
66
66
66
65
65
66
67
69
71
73
77
82
87
92
97
104
109
113
113
114
112
107
101
95
88
82
76
71
68
64
60
58
56
54
53
52
51
51
49
48
48
48
48
48
47
45
44
43
44
44
44
45
45
44
42
42
42
41
40
39
37
36
35
34
34
32
32
31
30
30
29
29
28
28
27
26
25
24
25
23
76
75
75
74
73
74
73
73
73
71
70
71
70
69
69
69
69
68
67
66
66
66
66
65
65
66
67
68
70
73
76
81
86
93
98
103
107
110
111
112
111
107
102
98
91
84
80
74
69
65
61
58
56
54
53
52
51
50
50
49
49
48
47
46
46
45
45
44
44
44
43
44
43
43
43
42
41
39
39
38
37
37
36
34
34
32
31
30
31
29
28
28
27
27
26
26
25
25
23
22
71
69
69
69
69
69
68
68
68
66
66
66
66
66
66
65
64
64
63
63
62
61
62
61
63
63
64
66
67
70
73
77
82
87
92
96
101
104
106
104
103
99
94
90
84
78
72
68
65
60
58
55
54
52
51
50
49
48
48
48
48
47
46
45
45
45
44
44
43
42
41
42
42
42
43
42
40
39
37
37
36
35
35
34
34
33
32
32
31
30
28
28
28
27
27
26
27
25
23
22
66
66
66
64
64
64
64
64
64
63
61
61
61
60
60
60
58
59
59
58
58
57
56
56
56
57
59
61
62
66
68
73
78
82
86
91
95
98
99
96
93
93
88
85
80
74
70
66
63
59
57
54
53
51
49
49
48
48
47
47
47
47
46
45
45
45
45
44
43
43
42
42
42
41
42
41
39
39
38
38
37
36
36
35
35
33
33
33
32
31
29
28
28
28
28
27
27
25
24
23
64
63
63
65
64
64
63
63
62
62
61
61
61
61
60
60
59
59
58
58
58
57
58
59
58
59
60
62
63
66
69
73
77
82
86
90
94
96
100
100
99
95
90
86
80
74
69
65
62
58
56
53
52
50
49
48
47
47
46
45
46
46
46
46
45
44
43
43
42
42
41
41
41
40
40
41
40
39
37
36
36
35
35
35
34
33
32
30
31
30
28
27
26
26
26
26
25
25
23
22
65
64
64
63
64
64
65
65
63
62
61
60
62
61
60
60
59
59
59
59
59
58
59
59
58
60
60
63
65
66
71
75
78
81
86
90
93
97
97
95
93
91
87
81
75
71
68
64
61
57
55
53
52
50
48
47
46
45
45
44
44
44
44
44
44
42
42
41
40
40
40
39
39
38
38
39
37
37
36
36
35
35
34
31
30
30
30
30
29
28
27
27
26
26
25
23
24
22
22
21
65
63
64
62
63
64
63
63
61
61
60
61
60
59
59
59
59
58
59
58
58
58
58
59
59
60
60
62
65
67
68
72
76
81
84
89
93
97
96
94
94
92
88
82
77
74
70
67
62
59
58
54
52
50
49
48
47
46
44
44
44
44
43
43
43
43
42
42
41
40
41
40
40
39
39
39
39
37
36
34
34
33
32
32
30
29
28
29
27
28
27
26
25
26
26
25
24
23
21
20
67
65
65
65
64
64
64
64
64
63
62
62
61
60
59
60
60
59
59
59
59
58
58
59
59
59
60
62
64
69
71
74
77
83
86
89
93
95
96
95
97
95
88
86
80
75
69
65
63
60
58
55
53
50
49
47
46
46
45
44
45
44
43
42
42
42
43
42
41
41
40
40
40
39
39
38
37
36
36
35
33
33
33
31
31
31
30
29
29
28
25
25
26
25
23
23
22
22
21
21
68
67
67
66
64
64
64
64
64
63
62
61
61
61
60
60
58
60
59
59
58
58
58
59
59
60
59
61
65
66
70
74
77
79
85
86
89
93
94
93
92
88
86
82
79
73
68
65
63
59
56
53
51
49
47
46
46
45
44
44
43
43
41
42
42
42
42
42
41
41
40
39
37
38
37
36
35
35
35
34
33
33
32
32
31
30
31
29
29
27
26
25
25
25
25
23
21
20
20
19
64
63
63
64
63
62
62
61
62
61
59
59
59
57
58
58
57
57
57
57
57
56
56
56
57
57
58
59
62
64
66
70
74
77
82
85
86
87
88
90
90
89
84
79
73
70
67
64
60
57
54
52
49
48
46
45
45
44
43
43
42
42
42
42
41
42
42
41
41
40
40
40
39
38
38
37
36
35
36
35
34
34
33
32
31
30
29
28
28
26
25
25
24
24
22
21
21
20
20
19
60
59
58
58
58
59
60
59
58
57
57
58
57
56
56
56
55
55
55
54
54
53
54
55
54
55
56
58
60
61
66
70
72
76
80
84
87
88
90
91
89
86
82
79
76
73
67
63
59
55
53
51
48
48
47
46
45
44
43
42
42
41
41
41
41
41
40
39
39
38
37
37
37
37
36
35
35
35
33
33
32
31
31
30
29
28
28
27
27
26
25
25
24
23
23
23
20
21
20
19
59
58
56
55
55
55
55
56
54
53
53
53
54
54
55
53
53
52
52
51
52
52
53
54
53
55
56
57
60
62
64
66
69
74
79
80
82
85
87
88
86
82
79
76
72
69
63
59
58
54
52
50
47
45
44
43
42
41
40
41
40
39
39
38
39
38
37
36
36
35
34
34
35
35
34
33
32
32
31
30
29
30
28
29
28
27
27
26
26
26
24
25
23
22
21
20
20
20
19
18
55
54
53
54
54
54
54
54
54
54
52
51
53
54
53
53
53
52
51
51
51
52
52
52
52
53
54
56
59
59
60
61
66
70
72
74
75
77
78
79
78
74
74
73
70
65
62
59
56
52
49
47
43
42
41
40
39
38
37
38
38
37
37
36
36
37
37
35
34
35
34
34
35
35
35
33
33
31
31
30
29
29
28
28
28
27
27
26
26
25
23
22
23
22
21
20
19
20
19
16
53
53
53
52
53
53
52
52
52
51
51
51
51
50
50
50
50
50
50
50
49
49
49
49
49
51
52
53
55
57
57
60
64
65
68
71
72
72
74
73
72
71
70
69
64
62
58
56
54
51
49
48
44
42
41
39
39
37
36
37
37
35
35
35
35
35
34
33
33
33
33
32
33
33
34
32
31
31
30
29
29
28
27
27
27
26
24
24
24
24
22
21
21
22
20
20
18
19
17
16
53
52
53
51
51
49
48
48
49
49
49
50
49
48
48
49
48
47
47
47
47
47
48
49
49
49
50
50
52
53
56
59
60
63
66
68
69
71
71
70
71
70
67
65
62
59
56
54
52
49
48
45
43
40
40
39
38
38
38
38
36
35
34
33
33
33
32
32
32
32
31
31
32
32
32
32
32
31
30
29
28
28
28
27
26
25
24
25
24
23
21
21
21
21
20
19
18
18
16
15
52
51
49
50
49
49
48
48
48
47
47
47
45
46
46
46
47
46
46
46
45
45
45
45
46
47
47
49
51
51
54
56
58
61
64
66
67
66
68
69
70
68
66
61
58
57
54
52
50
47
45
43
42
39
38
37
37
37
36
35
35
36
35
35
33
32
31
32
31
30
30
30
31
31
31
31
30
29
28
28
28
28
27
26
26
26
26
24
23
22
20
20
21
20
18
17
17
16
15
14
50
49
49
48
47
48
48
47
47
48
46
46
46
45
46
46
46
46
45
45
44
45
45
46
46
46
47
48
49
51
54
55
58
59
63
63
65
66
68
68
67
65
63
60
58
56
54
53
50
46
44
42
41
39
38
36
36
36
34
33
33
33
33
32
31
31
32
31
30
29
29
29
30
29
29
29
29
27
27
26
25
27
25
25
25
23
21
21
21
20
19
18
18
17
17
16
17
17
16
14
